# xmcd
#
# Track frame offsets:
#	150
#	19130
#	32962
#	44047
#	64590
#	82540
#	97065
#	106067
#	118532
#	131415
#	145190
#	162017
#	174592
#	187942
#	204737
#	225665
#	240710
#	250785
#	263085
#	275135
#	285187
#
# Disc length: 4002
#
# Revision: 2
# Processed by: cddbd v1.5.1PL0 Copyright (c) Steve Scherf et al.
# Submitted via: dBpowerAMP V4.0
# Normalized: r0:DSETVAR1,TDELIM( - ),TSWAP
#
DISCID=1d0fa015
DTITLE=Various Artist - Country Soft-n-Mellow cd-2
DYEAR=1989
DGENRE=Country
TTITLE0=Ronnie Milsap - Lost in The Fifties Tonight (in The Still of The Night)
TTITLE1=Glen Campbell - Where do i Begin? (Theme From Love Story)
TTITLE2=Linda Ronstadt - Will You Love me Tomorrow?
TTITLE3=Elvis Presley - Bridge Over Troubled Water
TTITLE4=Waylon Jennings And Jessi Colter - Suspicious Minds
TTITLE5=Glen Campbell And Bobbie Gentry - My Elusive Dreams
TTITLE6=Everly Brothers - When Will i be Loved?
TTITLE7=Bobby Bare And Skeeter Davis - In The Misty Moonlight
TTITLE8=Jim ed Brown And Helen Cornelius - Morning Comes Too Early
TTITLE9=Wylon Jennings And Willie Nelson - The Year That Clayton Delaney Died
TTITLE10=Lee Greenwood - For The Good Times
TTITLE11=Roy Orbison - Blue Bayou
TTITLE12=Jerry Reed - Time in a Bottle
TTITLE13=Eddy Arnold - Leaving on a Jet Plane
TTITLE14=Ronnie Milsap - Still Losing You
TTITLE15=Kenny Dale - Bluest Heartache of The Year
TTITLE16=Eddy Arnold - Gonna Find me a Bluebird
TTITLE17=Patsy Cline - Crazy
TTITLE18=Bobby Bare - The Streets of Baltimore
TTITLE19=The Browns - Send me The Pillow You Dream on
TTITLE20=Jim Reeves - Medley: Four Walls, i Missed Me, He'll Have to Go, oh How i Miss You Tonight
EXTD=
EXTT0=
EXTT1=
EXTT2=
EXTT3=
EXTT4=
EXTT5=
EXTT6=
EXTT7=
EXTT8=
EXTT9=
EXTT10=
EXTT11=
EXTT12=
EXTT13=
EXTT14=
EXTT15=
EXTT16=
EXTT17=
EXTT18=
EXTT19=
EXTT20=
PLAYORDER=
